<svg xmlns="http://www.w3.org/2000/svg" viewBox="0 0 23.98 29.85"><defs><style>.cls-1{fill:#fff;}</style></defs><title>Asset 22</title><g id="Layer_2" data-name="Layer 2"><g id="Layer_1-2" data-name="Layer 1"><path class="cls-1" d="M15.41,28.82a27.72,27.72,0,0,1-7.7,1,27.75,27.75,0,0,1-7.71-1V0H15.41Z"/><path class="cls-1" d="M17.34,4.94a7.25,7.25,0,0,0-6.16,2.94c1.15-.59,2.13-.09,3.59-.26,5.14-.62,6.64,2.22,6.64,6.81,0,7.11-2.24,7.6-6.24,7.6a6.42,6.42,0,0,1-3.08-.8c1.38,1.77,2.15,3.27,4.18,3.27,4.26,0,7.71-1,7.71-10.09,0-5.86-2.38-9.47-6.64-9.47"/></g></g></svg>