<svg xmlns="http://www.w3.org/2000/svg" viewBox="0 0 19.33 29.7"><defs><style>.cls-1{fill:#fff;}</style></defs><title>Asset 25</title><g id="Layer_2" data-name="Layer 2"><g id="Layer_1-2" data-name="Layer 1"><path class="cls-1" d="M-210.6-96s1.43,3.8.73,5.6C-211-87.52-212-85.12-212-83.22c0,7.74,3.26,9.71,9.67,9.71s9.66-2,9.66-9.71c0-1.9-1-4.31-2.13-7.2-.77-2,.73-5.58.73-5.58Z" transform="translate(212 96)"/><path class="cls-1" d="M-200.58-67.76h-3.51s.66-3.89-.49-6.34c-1-2.17,5.51-2.17,4.49,0a11.49,11.49,0,0,0-.49,6.34" transform="translate(212 96)"/><path class="cls-1" d="M-196-67.43c0,.62-2.83,1.13-6.32,1.13s-6.33-.51-6.33-1.13,2.83-1.14,6.33-1.14,6.32.51,6.32,1.14" transform="translate(212 96)"/></g></g></svg>