<svg xmlns="http://www.w3.org/2000/svg" viewBox="0 0 23.02 30.22"><defs><style>.cls-1{fill:#fff;}.cls-2{fill:#5f67ac;}</style></defs><title>Asset 26</title><g id="Layer_2" data-name="Layer 2"><g id="Layer_1-2" data-name="Layer 1"><path class="cls-1" d="M15.19,16.08c-.39.78-1.27.94-1,1.75s1,.62,1.46.7c2.22.42,4.08,1.73,6.26,2.19a1.29,1.29,0,0,1,1,1.83,43.7,43.7,0,0,0-1.48,5.94c-.23,1.56-1.78,1.62-2.91,1.65-4.74.11-9.49.09-14.23,0-1.47,0-2.61-.56-2.88-2.27A39.58,39.58,0,0,0,.1,22.45C-.14,21.64,0,21.3.83,21c2.25-.77,4.38-1.83,6.69-2.47.81-.23,2.71-.29.94-1.86A8.86,8.86,0,0,0,8.75,12c-.11-1,.67-2.16-.18-3.24a.62.62,0,0,1,.08-1A2.32,2.32,0,0,0,9,4.86C8.13,3.37,9.12,3.3,10,3.18s1.92.21,1.71-1.24c0-.05.16-.14.25-.19A19.76,19.76,0,0,1,17,0a.56.56,0,0,1,.66.63c-.5,5.23-.08,10.48-.21,15.72,0,.78-.3,1.1-1.15,1.21-1.22.17-1-.65-1.15-1.49"/><path class="cls-2" d="M14.53,4.59a4.11,4.11,0,0,1,.13,3.1,3.34,3.34,0,0,1-.13-3.1"/><path class="cls-2" d="M14.6,11.9a4,4,0,0,1-.13-3.11,3.35,3.35,0,0,1,.13,3.11"/><path class="cls-2" d="M14.67,15.75a3.78,3.78,0,0,1-.2-3.1c.74,1,.31,2.07.2,3.1"/><path class="cls-2" d="M12.45,3c.61-.86,1.4-.47,2.08-.52.42,0,.41.34.39.63s0,.56-.15.65c-.32.21-.43-.06-.61-.33C13.78,2.84,13,3.35,12.45,3"/><path class="cls-2" d="M12.39,6.28c0,.18-.11.37-.51.38A.82.82,0,0,1,11,6c-.11-.58.67-.34.86-.7a1,1,0,0,1,.58,1"/><path class="cls-2" d="M11.71,9.82c.41,0,.7,0,.67.54s-.24.75-.55.72a1.11,1.11,0,0,1-.74-.66c-.1-.34.23-.57.62-.6"/><path class="cls-2" d="M12.37,14.12c0,.29,0,.56-.4.62a1,1,0,0,1-1-.55,1.5,1.5,0,0,1,.64-.48c.31-.08.74-.13.75.41"/></g></g></svg>