<svg xmlns="http://www.w3.org/2000/svg" viewBox="0 0 12.15 34.66"><defs><style>.cls-1{fill:#fff;}</style></defs><title>Asset 21</title><g id="Layer_2" data-name="Layer 2"><g id="Layer_1-2" data-name="Layer 1"><path class="cls-1" d="M12,33.35c0,.73-2.64,1.31-5.9,1.31S.17,34.08.17,33.35,2.81,32,6.08,32s5.9.58,5.9,1.31"/><path class="cls-1" d="M8.63,30.61a11.42,11.42,0,0,1-2.6.28,10.13,10.13,0,0,1-2.51-.28L0,0H12.15Z"/><path class="cls-1" d="M8.23,32.55H3.92s.28-.18.28-.92a1.39,1.39,0,0,0-.28-1H8.23a1.48,1.48,0,0,0-.28,1c0,.74.28.9.28.9"/></g></g></svg>