<svg xmlns="http://www.w3.org/2000/svg" viewBox="0 0 20.95 25.72"><defs><style>.cls-1{fill:#fff;}</style></defs><title>Asset 28</title><g id="Layer_2" data-name="Layer 2"><g id="Layer_1-2" data-name="Layer 1"><path class="cls-1" d="M12.1,22.11H8.86l.61-5.28a2,2,0,1,1,2,0Zm6-12.24H2.83A2.84,2.84,0,0,0,0,12.72V22.86a2.85,2.85,0,0,0,2.83,2.86h15.3A2.85,2.85,0,0,0,21,22.86V12.72a2.84,2.84,0,0,0-2.82-2.85"/><path class="cls-1" d="M2.41,8.86h.73V4.33A2.85,2.85,0,0,1,6,1.48h9a2.84,2.84,0,0,1,2.83,2.85V8.86h.73a2.9,2.9,0,0,1,.84.14V2.85A2.84,2.84,0,0,0,16.55,0H4.4A2.85,2.85,0,0,0,1.57,2.85V9a3,3,0,0,1,.84-.14"/></g></g></svg>