<svg xmlns="http://www.w3.org/2000/svg" viewBox="0 0 36.88 28.86"><defs><style>.cls-1{fill:#fff;}.cls-2{fill:none;stroke:#fff;stroke-miterlimit:10;stroke-width:2.2px;}</style></defs><title>Asset 23</title><g id="Layer_2" data-name="Layer 2"><g id="Layer_1-2" data-name="Layer 1"><path class="cls-1" d="M30.06,6.83a3.13,3.13,0,0,1,1.61-.19,4.18,4.18,0,0,1,2.25,1.19c.38.55,1.48,1.69,1.47,2.41s.45,3.15.34,4.08a8.48,8.48,0,0,0-.06,3.18A7,7,0,0,0,36.34,20c.37.55.77,2.11.38,2.36s-.44.75-.86,0-.75-1.1-1-1.63-.38-.48-.69-.94a1.92,1.92,0,0,1-.38-1.13,8.88,8.88,0,0,0-1-3.07,2.06,2.06,0,0,1,0-1.38L32.48,12c-.17-2.71-1.81-3.56-2.42-5.14"/><path class="cls-1" d="M17,17.29a6.56,6.56,0,0,1,.15-.95H13.77c.3.57.57,1.05.72,1.36.34.73.38,2.91.73,4.1a7.35,7.35,0,0,1,.3,2.54c0,1.19-.11,1.15-.73,2.15s-1.15,1.8-1.15,1.8h2.11a2.48,2.48,0,0,0,.35-1.15c0-.69.54-1,.89-1.77s-.08-1-.16-2.84A37.55,37.55,0,0,1,17,17.29"/><path class="cls-1" d="M27.06,15.84s1.06,2.61,1.83,3.21c1.08.82,2,.93,2.32,1.49s1.13,2,1.29,2.32a4.14,4.14,0,0,1,1,2.15c0,1-.22,3.42,0,3.64s.38.34,1,0,.7-.55.33-1.16-.49-.66-.38-1,.65-.27.49-1.37a9.21,9.21,0,0,0-.76-2.33c-.27-.71-1.72-3.16-1.89-3.92-.1-.49,0-.53-.3-1s-.77-.41-1.1-1.29-.75-2.32-.75-2.32Z"/><path class="cls-1" d="M32.15,8.27C32,7,31.3,7.13,29.59,6.3,26.22,4.66,24.79,6,22,6.46s-7.81-.81-8.81-1.35c0,0-3.68-1.65-4.22-2A29.17,29.17,0,0,0,5,1.73,4,4,0,0,0,3.73,1.5L2.62,0a6.32,6.32,0,0,0-.27,1.31.89.89,0,0,0,.5,1,4.94,4.94,0,0,0-.62,1.11A19.79,19.79,0,0,1,.85,6.3C-.23,8-.31,8.79.77,9.57S2.65,8.45,4,7.84,5.61,6.69,5.61,6.69s.89,1.19,1.5,2.23S9.73,11.14,10,11.61s-.07,1.07.27,2.57a8.25,8.25,0,0,0,.39,1.19c0-.47.07-1,.07-1.52,0-.76-.19-2.57-.19-2.57A10.67,10.67,0,0,1,12.76,9a6.58,6.58,0,0,0,2-2.75,39.91,39.91,0,0,0,6.24.5c3.41,0,4-.94,6.82-.69S31,8.27,30.93,8.46s-.07,4.57,0,5.51-.14,1.5-1,1.57a32.12,32.12,0,0,1-3.27-.25,55.64,55.64,0,0,0,2.49,5.6c1,1.73.58,1.92.54,3.23A16.65,16.65,0,0,1,29.55,27c-.19.92-.49.72-.77,1.34-.19.43.43.39,1,.35s.92-.23.89-.5a2.26,2.26,0,0,1-.23-1.38c.11-.93.61-1.81.61-2.66a7.45,7.45,0,0,1,.46-2.87,7.35,7.35,0,0,0-.42-4.3c-.5-.92.38-1.3.88-4.15,0-.09,0-2.9,0-3C31.88,9.78,33,9.74,32.15,8.27Z"/><path class="cls-1" d="M14.53,17.73a6.53,6.53,0,0,1,.16-1l-3.16.42c.21.39.39.72.5.95.35.73.39,2.91.73,4.1a7.33,7.33,0,0,1,.31,2.53c0,1.19-.12,1.15-.73,2.15s-1.16,1.81-1.16,1.81H13.3a2.48,2.48,0,0,0,.35-1.15c0-.7.54-1,.88-1.77s-.07-1-.15-2.84A39.29,39.29,0,0,1,14.53,17.73Z"/><path class="cls-1" d="M24.56,15.16a48.78,48.78,0,0,0-5.44.82,12.1,12.1,0,0,0-1.53.3c2.37-.2,2.76-.17,4.11-.4a40.23,40.23,0,0,1,4.82-.6C25.8,15.21,25.1,15.16,24.56,15.16Z"/><path class="cls-2" d="M14.72,6.27a6.58,6.58,0,0,1-2,2.75,10.67,10.67,0,0,0-2.23,2.26s.19,1.81.19,2.57a21.33,21.33,0,0,1-.32,3.5s3.93-.56,5.18-.68,2.49-.57,3.54-.69a48.78,48.78,0,0,1,5.44-.82c1.58,0,4.53.44,5.38.38s1-.63,1-1.57-.07-5.32,0-5.51-.33-2.13-3.15-2.38-3.41.69-6.82.69A39.91,39.91,0,0,1,14.72,6.27Z"/></g></g></svg>