<svg xmlns="http://www.w3.org/2000/svg" viewBox="0 0 15.56 34.56"><defs><style>.cls-1{fill:#fff;}</style></defs><title>Asset 27</title><g id="Layer_2" data-name="Layer 2"><g id="Layer_1-2" data-name="Layer 1"><path class="cls-1" d="M2.4,0H13.08s4,12.37,1.85,15.12c-1.32,1.68-4.82,3.57-5.64,4.94C8,22.25,9,32,9,32s2.87.48,5.21,1.09c1.83.48,1.88,1-.49,1.31a104.43,104.43,0,0,1-11.5-.07c-2-.14-2.29-.82-.5-1.24,2.94-.67,5.14-1.23,5.14-1.23s.7-9.4-.22-11.47S.05,15.69,0,13.19C-.07,9.83,2.4,0,2.4,0"/></g></g></svg>